<?xml version="1.0" standalone="no"?>
<!DOCTYPE svg PUBLIC "-//W3C//DTD SVG 20010904//EN"
 "http://www.w3.org/TR/2001/REC-SVG-20010904/DTD/svg10.dtd">
<svg version="1.0" xmlns="http://www.w3.org/2000/svg"
 width="185.000000pt" height="185.000000pt" viewBox="0 0 185.000000 185.000000"
 preserveAspectRatio="xMidYMid meet">

<g transform="translate(0.000000,185.000000) scale(0.100000,-0.100000)"
fill="#000000" stroke="none">
<path d="M765 1836 c-245 -48 -468 -192 -605 -391 -121 -176 -181 -427 -151
-636 87 -604 703 -962 1263 -734 197 80 381 250 476 440 97 194 121 432 66
650 -23 92 -106 254 -174 339 -118 148 -310 272 -490 316 -109 27 -290 34
-385 16z m280 -76 c179 -26 349 -115 479 -250 117 -121 184 -244 222 -406 25
-107 15 -324 -20 -427 -77 -230 -223 -400 -431 -505 -114 -57 -188 -74 -341
-79 -173 -7 -258 12 -411 87 -81 40 -119 67 -189 132 -128 122 -193 226 -239
383 -169 584 327 1152 930 1065z"/>
<path d="M915 1476 c-51 -23 -103 -73 -129 -124 -17 -34 -36 -131 -36 -189 l0
-43 -60 0 c-91 0 -100 -13 -100 -148 0 -141 7 -152 96 -152 l64 0 0 -207 c0
-148 4 -215 13 -233 12 -24 16 -25 137 -28 170 -4 160 -20 160 254 l0 214 79
0 c104 0 106 2 106 146 0 142 -4 147 -111 152 l-75 4 3 47 3 46 75 3 c106 4
110 10 110 139 0 57 -5 113 -10 124 -10 17 -22 19 -143 19 -117 0 -138 -3
-182 -24z m255 -110 l0 -63 -67 -6 c-97 -9 -117 -31 -121 -136 -6 -115 -1
-121 103 -121 l85 0 0 -70 0 -70 -73 0 c-121 0 -117 9 -117 -251 l0 -219 -75
0 -75 0 0 225 c0 258 5 245 -99 245 l-61 0 0 70 0 70 69 0 c43 0 72 5 79 13 5
6 12 59 14 117 4 81 10 114 26 146 25 48 72 92 110 100 15 3 32 7 37 9 6 2 45
4 88 4 l77 1 0 -64z"/>
</g>
</svg>
