<?xml version="1.0" standalone="no"?>
<!DOCTYPE svg PUBLIC "-//W3C//DTD SVG 20010904//EN"
 "http://www.w3.org/TR/2001/REC-SVG-20010904/DTD/svg10.dtd">
<svg version="1.0" xmlns="http://www.w3.org/2000/svg"
 width="185.000000pt" height="185.000000pt" viewBox="0 0 185.000000 185.000000"
 preserveAspectRatio="xMidYMid meet">

<g transform="translate(0.000000,185.000000) scale(0.100000,-0.100000)"
fill="#000000" stroke="none">
<path d="M773 1835 c-379 -69 -682 -370 -749 -745 -65 -365 100 -739 416 -942
299 -192 705 -187 1001 13 203 137 346 350 394 588 23 113 16 314 -15 421 -81
286 -297 521 -568 620 -156 57 -326 73 -479 45z m302 -80 c317 -56 577 -290
667 -602 20 -66 23 -101 23 -233 -1 -149 -2 -159 -34 -252 -98 -285 -321 -491
-606 -559 -76 -18 -112 -20 -225 -17 -119 4 -146 8 -230 37 -221 75 -392 223
-494 428 -104 208 -113 461 -25 681 57 143 165 282 284 367 197 140 410 190
640 150z"/>
<path d="M605 1428 c-90 -32 -166 -119 -185 -213 -7 -34 -10 -150 -8 -317 3
-252 4 -265 27 -316 30 -66 105 -135 170 -157 41 -13 93 -15 337 -13 281 3
290 4 337 27 60 29 109 79 139 140 22 45 23 54 23 347 l0 300 -30 59 c-34 66
-101 125 -165 144 -49 15 -603 14 -645 -1z m655 -90 c26 -14 57 -41 75 -66
l30 -44 0 -296 c0 -282 -1 -299 -21 -337 -11 -22 -40 -53 -63 -70 l-43 -30
-286 -3 c-325 -3 -344 0 -406 68 -53 59 -58 90 -54 389 l3 268 30 48 c20 32
45 56 74 72 43 23 50 23 330 23 278 0 288 -1 331 -22z"/>
<path d="M1194 1296 c-34 -15 -58 -63 -47 -94 22 -63 94 -82 138 -37 32 31 33
76 3 109 -30 32 -56 38 -94 22z m54 -74 c3 -16 -2 -22 -17 -22 -26 0 -36 17
-20 36 16 19 33 13 37 -14z"/>
<path d="M900 1212 c-102 -14 -193 -80 -233 -170 -29 -65 -28 -160 3 -230 44
-101 154 -172 266 -172 99 0 206 68 256 162 32 61 32 185 0 245 -61 115 -178
182 -292 165z m135 -106 c173 -93 117 -368 -79 -384 -107 -9 -194 48 -222 145
-19 65 -12 116 23 170 61 95 177 123 278 69z"/>
</g>
</svg>
