<?xml version="1.0" standalone="no"?>
<!DOCTYPE svg PUBLIC "-//W3C//DTD SVG 20010904//EN"
 "http://www.w3.org/TR/2001/REC-SVG-20010904/DTD/svg10.dtd">
<svg version="1.0" xmlns="http://www.w3.org/2000/svg"
 width="184.000000pt" height="184.000000pt" viewBox="0 0 184.000000 184.000000"
 preserveAspectRatio="xMidYMid meet">

<g transform="translate(0.000000,184.000000) scale(0.100000,-0.100000)"
fill="#000000" stroke="none">
<path d="M763 1825 c-456 -83 -786 -495 -760 -950 29 -507 463 -900 962 -872
507 29 900 463 872 962 -25 431 -340 786 -764 860 -102 18 -212 18 -310 0z
m303 -80 c146 -26 303 -103 415 -204 438 -395 339 -1107 -190 -1372 -411 -205
-914 -35 -1122 380 -152 303 -100 678 130 932 195 217 478 314 767 264z"/>
<path d="M513 1470 c-106 -48 -112 -203 -10 -254 32 -16 32 -16 5 -16 -30 0
-55 -21 -63 -53 -3 -12 -5 -152 -3 -310 4 -342 -7 -317 134 -317 132 0 124
-22 124 340 l0 297 -23 21 c-13 12 -32 22 -43 22 -15 0 -14 4 10 19 105 69 84
227 -35 261 -44 13 -47 13 -96 -10z m108 -69 c29 -23 31 -81 4 -111 -28 -31
-88 -27 -114 6 -28 35 -26 69 4 99 29 30 73 33 106 6z m9 -546 l0 -275 -60 0
-60 0 0 275 0 275 60 0 60 0 0 -275z"/>
<path d="M1072 1205 c-23 -7 -49 -18 -57 -25 -11 -9 -18 -9 -30 4 -13 13 -38
16 -115 16 -91 0 -100 -2 -114 -22 -14 -19 -16 -67 -16 -318 0 -251 2 -299 16
-318 14 -20 23 -22 124 -22 85 0 112 3 124 16 13 13 16 46 16 210 0 181 1 195
20 214 23 23 68 26 96 6 18 -13 19 -30 22 -217 2 -124 7 -208 14 -216 16 -20
202 -18 222 3 14 13 16 51 16 258 0 241 0 242 -26 294 -30 61 -74 98 -140 118
-58 17 -115 17 -172 -1z m176 -74 c90 -46 101 -82 102 -344 l0 -208 -62 3 -63
3 -5 190 c-3 122 -9 198 -17 211 -33 57 -136 78 -191 38 -55 -41 -62 -72 -62
-266 l0 -178 -70 0 -70 0 0 275 0 275 60 0 60 0 0 -51 0 -51 56 51 c30 28 70
55 87 60 56 16 135 12 175 -8z"/>
</g>
</svg>
